<mxfile host="65bd71144e">
    <diagram name="Page-1" id="jqDnCujOp7mulD6K2x4Z">
        <mxGraphModel dx="1095" dy="621" grid="1" gridSize="10" guides="1" tooltips="1" connect="1" arrows="1" fold="1" page="1" pageScale="1" pageWidth="827" pageHeight="1169" math="0" shadow="0">
            <root>
                <mxCell id="0"/>
                <mxCell id="1" parent="0"/>
                <mxCell id="FDN6Dccw9lO80wlC99TS-1" value="Event" style="swimlane;fontStyle=0;childLayout=stackLayout;horizontal=1;startSize=26;fillColor=none;horizontalStack=0;resizeParent=1;resizeParentMax=0;resizeLast=0;collapsible=1;marginBottom=0;whiteSpace=wrap;html=1;" parent="1" vertex="1">
                    <mxGeometry x="460" y="120" width="150" height="180" as="geometry">
                        <mxRectangle x="110" y="140" width="70" height="30" as="alternateBounds"/>
                    </mxGeometry>
                </mxCell>
                <mxCell id="FDN6Dccw9lO80wlC99TS-3" value="+ &lt;b&gt;Event ID&lt;/b&gt;&lt;br&gt;+ name&lt;br&gt;+ description&lt;br&gt;+ icon&lt;br&gt;+ rating&lt;br&gt;+ datetime of creation&lt;br&gt;+ datetime of last edit&lt;br&gt;+ status" style="text;strokeColor=none;fillColor=none;align=left;verticalAlign=top;spacingLeft=4;spacingRight=4;overflow=hidden;rotatable=0;points=[[0,0.5],[1,0.5]];portConstraint=eastwest;whiteSpace=wrap;html=1;" parent="FDN6Dccw9lO80wlC99TS-1" vertex="1">
                    <mxGeometry y="26" width="150" height="154" as="geometry"/>
                </mxCell>
                <mxCell id="FDN6Dccw9lO80wlC99TS-5" value="Address" style="swimlane;fontStyle=0;childLayout=stackLayout;horizontal=1;startSize=26;fillColor=none;horizontalStack=0;resizeParent=1;resizeParentMax=0;resizeLast=0;collapsible=1;marginBottom=0;whiteSpace=wrap;html=1;" parent="1" vertex="1">
                    <mxGeometry x="65" y="255" width="170" height="200" as="geometry"/>
                </mxCell>
                <mxCell id="FDN6Dccw9lO80wlC99TS-6" value="+ &lt;b&gt;Address ID&lt;/b&gt;&lt;br&gt;+ Country&lt;br&gt;+&amp;nbsp;Postal or ZIP Code&lt;br&gt;+ city&lt;br&gt;+ street name&lt;br&gt;+ street number&lt;br&gt;+&amp;nbsp;State, Province, or Region&lt;br&gt;+ description&lt;br&gt;+ day of creation&lt;br&gt;+ status" style="text;strokeColor=none;fillColor=none;align=left;verticalAlign=top;spacingLeft=4;spacingRight=4;overflow=hidden;rotatable=0;points=[[0,0.5],[1,0.5]];portConstraint=eastwest;whiteSpace=wrap;html=1;" parent="FDN6Dccw9lO80wlC99TS-5" vertex="1">
                    <mxGeometry y="26" width="170" height="174" as="geometry"/>
                </mxCell>
                <mxCell id="FDN6Dccw9lO80wlC99TS-31" value="belongs to" style="edgeStyle=orthogonalEdgeStyle;rounded=0;orthogonalLoop=1;jettySize=auto;html=1;exitX=-0.008;exitY=0.12;exitDx=0;exitDy=0;endArrow=none;endFill=0;exitPerimeter=0;entryX=0.5;entryY=0;entryDx=0;entryDy=0;" parent="1" source="FDN6Dccw9lO80wlC99TS-15" target="60AjlheZNccqqkpiSa9z-3" edge="1">
                    <mxGeometry x="-0.0594" relative="1" as="geometry">
                        <mxPoint as="offset"/>
                        <mxPoint x="420" y="50" as="targetPoint"/>
                        <Array as="points">
                            <mxPoint x="639" y="60"/>
                            <mxPoint x="400" y="60"/>
                            <mxPoint x="400" y="140"/>
                            <mxPoint x="370" y="140"/>
                            <mxPoint x="370" y="187"/>
                        </Array>
                    </mxGeometry>
                </mxCell>
                <mxCell id="FDN6Dccw9lO80wlC99TS-15" value="Entrance fee&lt;br&gt;&amp;lt;&amp;lt;weak&amp;gt;&amp;gt;" style="swimlane;fontStyle=0;childLayout=stackLayout;horizontal=1;startSize=26;fillColor=none;horizontalStack=0;resizeParent=1;resizeParentMax=0;resizeLast=0;collapsible=1;marginBottom=0;whiteSpace=wrap;html=1;" parent="1" vertex="1">
                    <mxGeometry x="640" y="35" width="170" height="130" as="geometry"/>
                </mxCell>
                <mxCell id="FDN6Dccw9lO80wlC99TS-16" value="+ &lt;b&gt;Fee name&lt;/b&gt;&lt;br&gt;+ &lt;b&gt;Instance ID&lt;br&gt;&lt;/b&gt;+ pre buy/on place&lt;br&gt;+ cost&lt;br&gt;+ max tickets&lt;br&gt;+ sold tickets" style="text;strokeColor=none;fillColor=none;align=left;verticalAlign=top;spacingLeft=4;spacingRight=4;overflow=hidden;rotatable=0;points=[[0,0.5],[1,0.5]];portConstraint=eastwest;whiteSpace=wrap;html=1;" parent="FDN6Dccw9lO80wlC99TS-15" vertex="1">
                    <mxGeometry y="26" width="170" height="104" as="geometry"/>
                </mxCell>
                <mxCell id="FDN6Dccw9lO80wlC99TS-17" value="Photo" style="swimlane;fontStyle=0;childLayout=stackLayout;horizontal=1;startSize=26;fillColor=none;horizontalStack=0;resizeParent=1;resizeParentMax=0;resizeLast=0;collapsible=1;marginBottom=0;whiteSpace=wrap;html=1;" parent="1" vertex="1">
                    <mxGeometry x="297" y="375" width="170" height="80" as="geometry"/>
                </mxCell>
                <mxCell id="FDN6Dccw9lO80wlC99TS-18" value="+ &lt;b&gt;Photo ID&lt;/b&gt;&lt;br&gt;+ photo" style="text;strokeColor=none;fillColor=none;align=left;verticalAlign=top;spacingLeft=4;spacingRight=4;overflow=hidden;rotatable=0;points=[[0,0.5],[1,0.5]];portConstraint=eastwest;whiteSpace=wrap;html=1;" parent="FDN6Dccw9lO80wlC99TS-17" vertex="1">
                    <mxGeometry y="26" width="170" height="54" as="geometry"/>
                </mxCell>
                <mxCell id="FDN6Dccw9lO80wlC99TS-113" value="proposal" style="edgeStyle=orthogonalEdgeStyle;rounded=0;orthogonalLoop=1;jettySize=auto;html=1;exitX=0.25;exitY=0;exitDx=0;exitDy=0;entryX=0;entryY=0;entryDx=0;entryDy=0;endArrow=none;endFill=0;" parent="1" source="FDN6Dccw9lO80wlC99TS-19" target="FDN6Dccw9lO80wlC99TS-21" edge="1">
                    <mxGeometry x="-0.644" relative="1" as="geometry">
                        <Array as="points">
                            <mxPoint x="223" y="30"/>
                            <mxPoint x="40" y="30"/>
                            <mxPoint x="40" y="588"/>
                        </Array>
                        <mxPoint as="offset"/>
                    </mxGeometry>
                </mxCell>
                <mxCell id="FDN6Dccw9lO80wlC99TS-19" value="Category" style="swimlane;fontStyle=0;childLayout=stackLayout;horizontal=1;startSize=26;fillColor=none;horizontalStack=0;resizeParent=1;resizeParentMax=0;resizeLast=0;collapsible=1;marginBottom=0;whiteSpace=wrap;html=1;" parent="1" vertex="1">
                    <mxGeometry x="180" y="42" width="170" height="110" as="geometry"/>
                </mxCell>
                <mxCell id="FDN6Dccw9lO80wlC99TS-20" value="+ &lt;b&gt;Category&amp;nbsp;name&lt;/b&gt;&lt;br&gt;+ description&lt;br&gt;+ day of creation&lt;br&gt;+ status" style="text;strokeColor=none;fillColor=none;align=left;verticalAlign=top;spacingLeft=4;spacingRight=4;overflow=hidden;rotatable=0;points=[[0,0.5],[1,0.5]];portConstraint=eastwest;whiteSpace=wrap;html=1;" parent="FDN6Dccw9lO80wlC99TS-19" vertex="1">
                    <mxGeometry y="26" width="170" height="84" as="geometry"/>
                </mxCell>
                <mxCell id="FDN6Dccw9lO80wlC99TS-98" value="owner" style="edgeStyle=orthogonalEdgeStyle;rounded=0;orthogonalLoop=1;jettySize=auto;html=1;exitX=1.002;exitY=0.138;exitDx=0;exitDy=0;exitPerimeter=0;entryX=0.534;entryY=1.004;entryDx=0;entryDy=0;entryPerimeter=0;endArrow=none;endFill=0;" parent="1" source="FDN6Dccw9lO80wlC99TS-21" target="FDN6Dccw9lO80wlC99TS-3" edge="1">
                    <mxGeometry x="0.5883" relative="1" as="geometry">
                        <mxPoint x="490" y="260" as="targetPoint"/>
                        <Array as="points">
                            <mxPoint x="190" y="600"/>
                            <mxPoint x="320" y="600"/>
                            <mxPoint x="320" y="540"/>
                            <mxPoint x="540" y="540"/>
                            <mxPoint x="540" y="301"/>
                        </Array>
                        <mxPoint as="offset"/>
                    </mxGeometry>
                </mxCell>
                <mxCell id="FDN6Dccw9lO80wlC99TS-107" value="proposal" style="edgeStyle=orthogonalEdgeStyle;rounded=0;orthogonalLoop=1;jettySize=auto;html=1;exitX=0.75;exitY=0;exitDx=0;exitDy=0;endArrow=none;endFill=0;entryX=0.441;entryY=1;entryDx=0;entryDy=0;entryPerimeter=0;" parent="1" source="FDN6Dccw9lO80wlC99TS-21" target="FDN6Dccw9lO80wlC99TS-6" edge="1">
                    <mxGeometry x="-0.0781" relative="1" as="geometry">
                        <mxPoint x="140" y="460" as="targetPoint"/>
                        <Array as="points">
                            <mxPoint x="140" y="588"/>
                        </Array>
                        <mxPoint as="offset"/>
                    </mxGeometry>
                </mxCell>
                <mxCell id="FDN6Dccw9lO80wlC99TS-21" value="Account" style="swimlane;fontStyle=0;childLayout=stackLayout;horizontal=1;startSize=26;fillColor=none;horizontalStack=0;resizeParent=1;resizeParentMax=0;resizeLast=0;collapsible=1;marginBottom=0;whiteSpace=wrap;html=1;" parent="1" vertex="1">
                    <mxGeometry x="20" y="588" width="170" height="170" as="geometry"/>
                </mxCell>
                <mxCell id="FDN6Dccw9lO80wlC99TS-22" value="+ &lt;b&gt;Account ID&lt;/b&gt;&lt;br&gt;+&amp;nbsp;email&lt;br&gt;+ first name&lt;br&gt;+ last name&lt;br&gt;+ nick&lt;br&gt;+ password&lt;br&gt;+ account type&lt;br&gt;+ photo&lt;br&gt;+ status" style="text;strokeColor=none;fillColor=none;align=left;verticalAlign=top;spacingLeft=4;spacingRight=4;overflow=hidden;rotatable=0;points=[[0,0.5],[1,0.5]];portConstraint=eastwest;whiteSpace=wrap;html=1;" parent="FDN6Dccw9lO80wlC99TS-21" vertex="1">
                    <mxGeometry y="26" width="170" height="144" as="geometry"/>
                </mxCell>
                <mxCell id="FDN6Dccw9lO80wlC99TS-25" value="has" style="edgeStyle=orthogonalEdgeStyle;rounded=0;orthogonalLoop=1;jettySize=auto;html=1;entryX=0.5;entryY=0;entryDx=0;entryDy=0;endArrow=none;endFill=0;" parent="1" source="FDN6Dccw9lO80wlC99TS-20" target="FDN6Dccw9lO80wlC99TS-1" edge="1">
                    <mxGeometry x="0.1976" y="8" relative="1" as="geometry">
                        <Array as="points">
                            <mxPoint x="535" y="100"/>
                        </Array>
                        <mxPoint as="offset"/>
                    </mxGeometry>
                </mxCell>
                <mxCell id="FDN6Dccw9lO80wlC99TS-26" value="1" style="text;html=1;strokeColor=none;fillColor=none;align=center;verticalAlign=middle;whiteSpace=wrap;rounded=0;" parent="1" vertex="1">
                    <mxGeometry x="344" y="94" width="30" height="30" as="geometry"/>
                </mxCell>
                <mxCell id="FDN6Dccw9lO80wlC99TS-27" value="0..*" style="text;html=1;strokeColor=none;fillColor=none;align=center;verticalAlign=middle;whiteSpace=wrap;rounded=0;" parent="1" vertex="1">
                    <mxGeometry x="508" y="97" width="30" height="30" as="geometry"/>
                </mxCell>
                <mxCell id="FDN6Dccw9lO80wlC99TS-29" value="0..*" style="text;html=1;strokeColor=none;fillColor=none;align=center;verticalAlign=middle;whiteSpace=wrap;rounded=0;" parent="1" vertex="1">
                    <mxGeometry x="389" y="165" width="30" height="30" as="geometry"/>
                </mxCell>
                <mxCell id="FDN6Dccw9lO80wlC99TS-30" value="0..*" style="text;html=1;strokeColor=none;fillColor=none;align=center;verticalAlign=middle;whiteSpace=wrap;rounded=0;" parent="1" vertex="1">
                    <mxGeometry x="254" y="248" width="30" height="30" as="geometry"/>
                </mxCell>
                <mxCell id="FDN6Dccw9lO80wlC99TS-32" value="1..*" style="text;html=1;strokeColor=none;fillColor=none;align=center;verticalAlign=middle;whiteSpace=wrap;rounded=0;" parent="1" vertex="1">
                    <mxGeometry x="607" y="34" width="30" height="30" as="geometry"/>
                </mxCell>
                <mxCell id="FDN6Dccw9lO80wlC99TS-33" value="1" style="text;html=1;strokeColor=none;fillColor=none;align=center;verticalAlign=middle;whiteSpace=wrap;rounded=0;" parent="1" vertex="1">
                    <mxGeometry x="344" y="165" width="30" height="30" as="geometry"/>
                </mxCell>
                <mxCell id="FDN6Dccw9lO80wlC99TS-34" value="belongs to" style="edgeStyle=orthogonalEdgeStyle;rounded=0;orthogonalLoop=1;jettySize=auto;html=1;entryX=0;entryY=0.5;entryDx=0;entryDy=0;endArrow=none;endFill=0;exitX=0.5;exitY=0;exitDx=0;exitDy=0;" parent="1" source="FDN6Dccw9lO80wlC99TS-17" target="FDN6Dccw9lO80wlC99TS-3" edge="1">
                    <mxGeometry x="0.0178" relative="1" as="geometry">
                        <mxPoint x="715" y="240" as="sourcePoint"/>
                        <Array as="points">
                            <mxPoint x="364" y="350"/>
                            <mxPoint x="440" y="350"/>
                            <mxPoint x="440" y="223"/>
                        </Array>
                        <mxPoint as="offset"/>
                    </mxGeometry>
                </mxCell>
                <mxCell id="FDN6Dccw9lO80wlC99TS-35" value="1" style="text;html=1;strokeColor=none;fillColor=none;align=center;verticalAlign=middle;whiteSpace=wrap;rounded=0;" parent="1" vertex="1">
                    <mxGeometry x="435" y="195" width="30" height="30" as="geometry"/>
                </mxCell>
                <mxCell id="FDN6Dccw9lO80wlC99TS-42" value="apply on" style="edgeStyle=orthogonalEdgeStyle;rounded=0;orthogonalLoop=1;jettySize=auto;html=1;endArrow=none;endFill=0;entryX=0.46;entryY=1.003;entryDx=0;entryDy=0;entryPerimeter=0;exitX=0.696;exitY=-0.004;exitDx=0;exitDy=0;exitPerimeter=0;" parent="1" source="FDN6Dccw9lO80wlC99TS-38" target="FDN6Dccw9lO80wlC99TS-16" edge="1">
                    <mxGeometry relative="1" as="geometry">
                        <mxPoint x="580" y="350" as="targetPoint"/>
                        <Array as="points">
                            <mxPoint x="718" y="620"/>
                        </Array>
                        <mxPoint x="740" y="620" as="sourcePoint"/>
                    </mxGeometry>
                </mxCell>
                <mxCell id="FDN6Dccw9lO80wlC99TS-38" value="Registration" style="swimlane;fontStyle=0;childLayout=stackLayout;horizontal=1;startSize=26;fillColor=none;horizontalStack=0;resizeParent=1;resizeParentMax=0;resizeLast=0;collapsible=1;marginBottom=0;whiteSpace=wrap;html=1;" parent="1" vertex="1">
                    <mxGeometry x="607" y="670" width="160" height="120" as="geometry"/>
                </mxCell>
                <mxCell id="FDN6Dccw9lO80wlC99TS-39" value="+ &lt;b&gt;Registration ID&lt;/b&gt;&lt;br&gt;+ date&lt;br&gt;+ time&lt;br&gt;+ confirmed" style="text;strokeColor=none;fillColor=none;align=left;verticalAlign=top;spacingLeft=4;spacingRight=4;overflow=hidden;rotatable=0;points=[[0,0.5],[1,0.5]];portConstraint=eastwest;whiteSpace=wrap;html=1;" parent="FDN6Dccw9lO80wlC99TS-38" vertex="1">
                    <mxGeometry y="26" width="160" height="94" as="geometry"/>
                </mxCell>
                <mxCell id="FDN6Dccw9lO80wlC99TS-41" value="make" style="edgeStyle=orthogonalEdgeStyle;rounded=0;orthogonalLoop=1;jettySize=auto;html=1;endArrow=none;endFill=0;entryX=0.002;entryY=0.867;entryDx=0;entryDy=0;entryPerimeter=0;" parent="1" target="FDN6Dccw9lO80wlC99TS-39" edge="1">
                    <mxGeometry relative="1" as="geometry">
                        <mxPoint x="580" y="760" as="targetPoint"/>
                        <Array as="points">
                            <mxPoint x="190" y="760"/>
                        </Array>
                        <mxPoint x="190" y="740" as="sourcePoint"/>
                    </mxGeometry>
                </mxCell>
                <mxCell id="FDN6Dccw9lO80wlC99TS-65" value="is subcategory" style="edgeStyle=orthogonalEdgeStyle;rounded=0;orthogonalLoop=1;jettySize=auto;html=1;exitX=0.75;exitY=0;exitDx=0;exitDy=0;entryX=1;entryY=0.25;entryDx=0;entryDy=0;endArrow=none;endFill=0;" parent="1" source="FDN6Dccw9lO80wlC99TS-19" target="FDN6Dccw9lO80wlC99TS-19" edge="1">
                    <mxGeometry relative="1" as="geometry">
                        <Array as="points">
                            <mxPoint x="308" y="10"/>
                            <mxPoint x="380" y="10"/>
                            <mxPoint x="380" y="73"/>
                        </Array>
                    </mxGeometry>
                </mxCell>
                <mxCell id="FDN6Dccw9lO80wlC99TS-66" value="1" style="text;html=1;strokeColor=none;fillColor=none;align=center;verticalAlign=middle;whiteSpace=wrap;rounded=0;" parent="1" vertex="1">
                    <mxGeometry x="284" y="19" width="30" height="30" as="geometry"/>
                </mxCell>
                <mxCell id="FDN6Dccw9lO80wlC99TS-67" value="0..*" style="text;html=1;strokeColor=none;fillColor=none;align=center;verticalAlign=middle;whiteSpace=wrap;rounded=0;" parent="1" vertex="1">
                    <mxGeometry x="349" y="49" width="30" height="30" as="geometry"/>
                </mxCell>
                <mxCell id="FDN6Dccw9lO80wlC99TS-72" value="1" style="text;html=1;strokeColor=none;fillColor=none;align=center;verticalAlign=middle;whiteSpace=wrap;rounded=0;" parent="1" vertex="1">
                    <mxGeometry x="714" y="161" width="30" height="30" as="geometry"/>
                </mxCell>
                <mxCell id="FDN6Dccw9lO80wlC99TS-73" value="1" style="text;html=1;strokeColor=none;fillColor=none;align=center;verticalAlign=middle;whiteSpace=wrap;rounded=0;" parent="1" vertex="1">
                    <mxGeometry x="168" y="750" width="30" height="30" as="geometry"/>
                </mxCell>
                <mxCell id="FDN6Dccw9lO80wlC99TS-74" value="0..*" style="text;html=1;strokeColor=none;fillColor=none;align=center;verticalAlign=middle;whiteSpace=wrap;rounded=0;" parent="1" vertex="1">
                    <mxGeometry x="716" y="643" width="30" height="30" as="geometry"/>
                </mxCell>
                <mxCell id="FDN6Dccw9lO80wlC99TS-75" value="0..*" style="text;html=1;strokeColor=none;fillColor=none;align=center;verticalAlign=middle;whiteSpace=wrap;rounded=0;" parent="1" vertex="1">
                    <mxGeometry x="577" y="738" width="30" height="30" as="geometry"/>
                </mxCell>
                <mxCell id="FDN6Dccw9lO80wlC99TS-76" value="Comment" style="swimlane;fontStyle=0;childLayout=stackLayout;horizontal=1;startSize=26;fillColor=none;horizontalStack=0;resizeParent=1;resizeParentMax=0;resizeLast=0;collapsible=1;marginBottom=0;whiteSpace=wrap;html=1;" parent="1" vertex="1">
                    <mxGeometry x="279" y="640" width="170" height="80" as="geometry"/>
                </mxCell>
                <mxCell id="FDN6Dccw9lO80wlC99TS-77" value="+ &lt;b&gt;Comment&lt;/b&gt;&amp;nbsp;&lt;b&gt;ID&lt;/b&gt;&lt;br&gt;+ timedate&lt;br&gt;+ text" style="text;strokeColor=none;fillColor=none;align=left;verticalAlign=top;spacingLeft=4;spacingRight=4;overflow=hidden;rotatable=0;points=[[0,0.5],[1,0.5]];portConstraint=eastwest;whiteSpace=wrap;html=1;" parent="FDN6Dccw9lO80wlC99TS-76" vertex="1">
                    <mxGeometry y="26" width="170" height="54" as="geometry"/>
                </mxCell>
                <mxCell id="FDN6Dccw9lO80wlC99TS-91" value="1" style="text;html=1;strokeColor=none;fillColor=none;align=center;verticalAlign=middle;whiteSpace=wrap;rounded=0;" parent="1" vertex="1">
                    <mxGeometry x="183" y="669" width="30" height="30" as="geometry"/>
                </mxCell>
                <mxCell id="FDN6Dccw9lO80wlC99TS-92" value="0..*" style="text;html=1;strokeColor=none;fillColor=none;align=center;verticalAlign=middle;whiteSpace=wrap;rounded=0;" parent="1" vertex="1">
                    <mxGeometry x="253" y="670" width="30" height="30" as="geometry"/>
                </mxCell>
                <mxCell id="FDN6Dccw9lO80wlC99TS-99" value="1" style="text;html=1;strokeColor=none;fillColor=none;align=center;verticalAlign=middle;whiteSpace=wrap;rounded=0;" parent="1" vertex="1">
                    <mxGeometry x="185" y="576" width="30" height="30" as="geometry"/>
                </mxCell>
                <mxCell id="FDN6Dccw9lO80wlC99TS-100" value="0..*" style="text;html=1;strokeColor=none;fillColor=none;align=center;verticalAlign=middle;whiteSpace=wrap;rounded=0;" parent="1" vertex="1">
                    <mxGeometry x="510" y="300" width="30" height="30" as="geometry"/>
                </mxCell>
                <mxCell id="FDN6Dccw9lO80wlC99TS-108" value="1" style="text;html=1;strokeColor=none;fillColor=none;align=center;verticalAlign=middle;whiteSpace=wrap;rounded=0;" parent="1" vertex="1">
                    <mxGeometry x="113" y="563" width="30" height="30" as="geometry"/>
                </mxCell>
                <mxCell id="FDN6Dccw9lO80wlC99TS-109" value="0..*" style="text;html=1;strokeColor=none;fillColor=none;align=center;verticalAlign=middle;whiteSpace=wrap;rounded=0;" parent="1" vertex="1">
                    <mxGeometry x="138" y="450" width="30" height="30" as="geometry"/>
                </mxCell>
                <mxCell id="FDN6Dccw9lO80wlC99TS-110" value="proposal" style="edgeStyle=orthogonalEdgeStyle;rounded=0;orthogonalLoop=1;jettySize=auto;html=1;entryX=0.924;entryY=-0.006;entryDx=0;entryDy=0;entryPerimeter=0;endArrow=none;endFill=0;exitX=0.199;exitY=1.002;exitDx=0;exitDy=0;exitPerimeter=0;" parent="1" source="FDN6Dccw9lO80wlC99TS-3" target="FDN6Dccw9lO80wlC99TS-21" edge="1">
                    <mxGeometry x="-0.3394" relative="1" as="geometry">
                        <Array as="points">
                            <mxPoint x="490" y="320"/>
                            <mxPoint x="490" y="520"/>
                            <mxPoint x="177" y="520"/>
                        </Array>
                        <mxPoint as="offset"/>
                        <mxPoint x="490" y="320" as="sourcePoint"/>
                    </mxGeometry>
                </mxCell>
                <mxCell id="FDN6Dccw9lO80wlC99TS-111" value="1" style="text;html=1;strokeColor=none;fillColor=none;align=center;verticalAlign=middle;whiteSpace=wrap;rounded=0;" parent="1" vertex="1">
                    <mxGeometry x="150" y="563" width="30" height="30" as="geometry"/>
                </mxCell>
                <mxCell id="FDN6Dccw9lO80wlC99TS-112" value="0..*" style="text;html=1;strokeColor=none;fillColor=none;align=center;verticalAlign=middle;whiteSpace=wrap;rounded=0;" parent="1" vertex="1">
                    <mxGeometry x="460" y="294" width="30" height="30" as="geometry"/>
                </mxCell>
                <mxCell id="FDN6Dccw9lO80wlC99TS-114" value="1" style="text;html=1;strokeColor=none;fillColor=none;align=center;verticalAlign=middle;whiteSpace=wrap;rounded=0;" parent="1" vertex="1">
                    <mxGeometry x="12" y="563" width="30" height="30" as="geometry"/>
                </mxCell>
                <mxCell id="FDN6Dccw9lO80wlC99TS-115" value="0..*" style="text;html=1;strokeColor=none;fillColor=none;align=center;verticalAlign=middle;whiteSpace=wrap;rounded=0;" parent="1" vertex="1">
                    <mxGeometry x="195" y="21" width="30" height="30" as="geometry"/>
                </mxCell>
                <mxCell id="FDN6Dccw9lO80wlC99TS-133" value="1" style="text;html=1;strokeColor=none;fillColor=none;align=center;verticalAlign=middle;whiteSpace=wrap;rounded=0;" parent="1" vertex="1">
                    <mxGeometry x="575" y="294" width="30" height="30" as="geometry"/>
                </mxCell>
                <mxCell id="FDN6Dccw9lO80wlC99TS-134" value="0..*" style="text;html=1;strokeColor=none;fillColor=none;align=center;verticalAlign=middle;whiteSpace=wrap;rounded=0;" parent="1" vertex="1">
                    <mxGeometry x="448" y="689" width="30" height="30" as="geometry"/>
                </mxCell>
                <mxCell id="60AjlheZNccqqkpiSa9z-3" value="Event instance" style="swimlane;fontStyle=0;childLayout=stackLayout;horizontal=1;startSize=26;fillColor=none;horizontalStack=0;resizeParent=1;resizeParentMax=0;resizeLast=0;collapsible=1;marginBottom=0;whiteSpace=wrap;html=1;" parent="1" vertex="1">
                    <mxGeometry x="284" y="187" width="140" height="130" as="geometry"/>
                </mxCell>
                <mxCell id="60AjlheZNccqqkpiSa9z-4" value="+ &lt;b&gt;Instance ID&lt;/b&gt;&lt;br&gt;+ date from&lt;br&gt;+ date to&lt;br&gt;+ time from&lt;br&gt;+ time to" style="text;strokeColor=none;fillColor=none;align=left;verticalAlign=top;spacingLeft=4;spacingRight=4;overflow=hidden;rotatable=0;points=[[0,0.5],[1,0.5]];portConstraint=eastwest;whiteSpace=wrap;html=1;" parent="60AjlheZNccqqkpiSa9z-3" vertex="1">
                    <mxGeometry y="26" width="140" height="104" as="geometry"/>
                </mxCell>
                <mxCell id="60AjlheZNccqqkpiSa9z-5" value="has" style="edgeStyle=orthogonalEdgeStyle;rounded=0;orthogonalLoop=1;jettySize=auto;html=1;entryX=0.001;entryY=0.544;entryDx=0;entryDy=0;entryPerimeter=0;endArrow=none;endFill=0;" parent="1" source="FDN6Dccw9lO80wlC99TS-5" target="60AjlheZNccqqkpiSa9z-4" edge="1">
                    <mxGeometry relative="1" as="geometry">
                        <Array as="points">
                            <mxPoint x="260" y="355"/>
                            <mxPoint x="260" y="270"/>
                            <mxPoint x="282" y="270"/>
                        </Array>
                    </mxGeometry>
                </mxCell>
                <mxCell id="60AjlheZNccqqkpiSa9z-7" value="has" style="edgeStyle=orthogonalEdgeStyle;rounded=0;orthogonalLoop=1;jettySize=auto;html=1;exitX=0.75;exitY=0;exitDx=0;exitDy=0;entryX=-0.005;entryY=0.155;entryDx=0;entryDy=0;entryPerimeter=0;endArrow=none;endFill=0;" parent="1" source="60AjlheZNccqqkpiSa9z-3" target="FDN6Dccw9lO80wlC99TS-3" edge="1">
                    <mxGeometry x="0.1014" y="10" relative="1" as="geometry">
                        <mxPoint x="450" y="160" as="targetPoint"/>
                        <Array as="points">
                            <mxPoint x="389" y="170"/>
                        </Array>
                        <mxPoint as="offset"/>
                    </mxGeometry>
                </mxCell>
                <mxCell id="60AjlheZNccqqkpiSa9z-8" value="1" style="text;html=1;strokeColor=none;fillColor=none;align=center;verticalAlign=middle;whiteSpace=wrap;rounded=0;" parent="1" vertex="1">
                    <mxGeometry x="435" y="148" width="30" height="30" as="geometry"/>
                </mxCell>
                <mxCell id="60AjlheZNccqqkpiSa9z-9" value="1" style="text;html=1;strokeColor=none;fillColor=none;align=center;verticalAlign=middle;whiteSpace=wrap;rounded=0;" parent="1" vertex="1">
                    <mxGeometry x="228" y="351" width="30" height="30" as="geometry"/>
                </mxCell>
                <mxCell id="60AjlheZNccqqkpiSa9z-11" value="0..*" style="text;html=1;strokeColor=none;fillColor=none;align=center;verticalAlign=middle;whiteSpace=wrap;rounded=0;" parent="1" vertex="1">
                    <mxGeometry x="337" y="351" width="30" height="30" as="geometry"/>
                </mxCell>
                <mxCell id="60AjlheZNccqqkpiSa9z-16" value="write" style="edgeStyle=orthogonalEdgeStyle;rounded=0;orthogonalLoop=1;jettySize=auto;html=1;entryX=0.997;entryY=0.59;entryDx=0;entryDy=0;entryPerimeter=0;endArrow=none;endFill=0;" parent="1" source="FDN6Dccw9lO80wlC99TS-77" target="FDN6Dccw9lO80wlC99TS-22" edge="1">
                    <mxGeometry relative="1" as="geometry">
                        <mxPoint x="210" y="693" as="targetPoint"/>
                    </mxGeometry>
                </mxCell>
                <mxCell id="60AjlheZNccqqkpiSa9z-17" value="belongs to" style="edgeStyle=orthogonalEdgeStyle;rounded=0;orthogonalLoop=1;jettySize=auto;html=1;entryX=0.8;entryY=1;entryDx=0;entryDy=0;entryPerimeter=0;endArrow=none;endFill=0;" parent="1" source="FDN6Dccw9lO80wlC99TS-77" target="FDN6Dccw9lO80wlC99TS-3" edge="1">
                    <mxGeometry relative="1" as="geometry">
                        <mxPoint x="579.9999999999998" y="309.9999999999999" as="targetPoint"/>
                    </mxGeometry>
                </mxCell>
            </root>
        </mxGraphModel>
    </diagram>
</mxfile>